# xmcd
#
# Track frame offsets:
#	150
#	19531
#	36902
#	52545
#	66509
#	88006
#	108939
#	132460
#	150348
#	171905
#	186952
#	207085
#	224579
#	243999
#	263303
#	283360
#	302026
#	318605
#
# Disc length: 4442
#
# Revision: 2
# Processed by: cddbd v1.5.1PL0 Copyright (c) Steve Scherf et al.
# Submitted via: EasyCDDAExtractor 5.1.0
# Normalized: r1:DSETVAR1
#
DISCID=fe115812
DTITLE=Various Artist - Divas Brasileiras Vol. 1
DYEAR=2002
DGENRE=Dance
TTITLE0=Tribalistas - Velha Infância
TTITLE1=Gal Costa - Socorro
TTITLE2=Zélia Duncan - Enquanto durmo
TTITLE3=Adriana Calcanhoto - Mentiras
TTITLE4=Adriana e a Rapaziada - Fim de noite
TTITLE5=Deborah Blando - A luz que ascende o olhar
TTITLE6=Ana Carolina - Quem de nós dois
TTITLE7=Daniela Mercury - Como vai você
TTITLE8=Simone - Lenha
TTITLE9=Marisa Monte - Amor I love you
TTITLE10=Joana - Tô fazendo falta
TTITLE11=Lara Fabian - Meu grande amor
TTITLE12=Ivete Sangalo - Se eu não te amasse tanto assim
TTITLE13=Zélia Duncan - Alma
TTITLE14=Deborah Blando - Próprias mentiras
TTITLE15=Cássia Eller - Malandragem
TTITLE16=Rita Lee - Doce vampiro
TTITLE17=Paula Hunter - Eu quero ser feliz
EXTD=
EXTT0=
EXTT1=
EXTT2=
EXTT3=
EXTT4=
EXTT5=
EXTT6=
EXTT7=
EXTT8=
EXTT9=
EXTT10=
EXTT11=
EXTT12=
EXTT13=
EXTT14=
EXTT15=
EXTT16=
EXTT17=
PLAYORDER=
